<svg width="199" height="199" viewBox="0 0 199 199" fill="none" xmlns="http://www.w3.org/2000/svg">
<rect width="199" height="199" fill="white"/>
<path fill-rule="evenodd" clip-rule="evenodd" d="M54.2458 121.445C59.162 129.08 70.2042 129.42 75.5804 122.101L108.466 77.3335C110.561 74.4814 108.524 70.4582 104.985 70.4582L87.1658 70.4582C87.4514 74.8971 86.2642 79.5252 83.2457 83.6342L76.8863 92.2914C71.5619 99.5396 60.626 99.2032 55.7572 91.6413L49.942 82.6097C47.4485 78.7371 46.4725 74.5121 46.7286 70.4582L29.3342 70.4582C25.9161 70.4582 23.8527 74.2408 25.7032 77.1147L54.2458 121.445Z" fill="black"/>
<path d="M77.2591 91.8711L63.524 65.1997L99.3319 70.4248L97.5918 70.4792C94.9947 70.5604 92.5722 71.8065 90.9958 73.8721L77.2591 91.8711Z" fill="white"/>
<path d="M56.6623 91.8711L70.3973 65.1997L34.5895 70.4248L36.3296 70.4792C38.9267 70.5604 41.3492 71.8065 42.9256 73.8721L56.6623 91.8711Z" fill="white"/>
<path fill-rule="evenodd" clip-rule="evenodd" d="M143.466 76.7177C138.287 68.6749 126.656 68.3171 120.992 76.0264L86.3523 123.183C84.1454 126.187 86.2907 130.425 90.0185 130.425L108.789 130.425C108.488 125.749 109.738 120.874 112.918 116.546L119.617 107.427C125.225 99.7916 136.745 100.146 141.873 108.111L147.999 117.625C150.625 121.704 151.653 126.155 151.384 130.425L169.706 130.425C173.307 130.425 175.48 126.44 173.531 123.413L143.466 76.7177Z" fill="black"/>
<path d="M119.224 107.869L133.692 135.964L95.9732 130.46L97.8062 130.403C100.542 130.317 103.094 129.005 104.754 126.829L119.224 107.869Z" fill="white"/>
<path d="M140.92 107.869L126.452 135.964L164.171 130.46L162.338 130.403C159.602 130.317 157.05 129.005 155.39 126.829L140.92 107.869Z" fill="white"/>
</svg>
